<?xml version="1.0" encoding="iso-8859-1"?>
<!-- Generator: Adobe Illustrator 19.0.0, SVG Export Plug-In . SVG Version: 6.00 Build 0)  -->
<svg version="1.1" id="Layer_1" xmlns="http://www.w3.org/2000/svg" xmlns:xlink="http://www.w3.org/1999/xlink" x="0px" y="0px"
	 viewBox="0 0 512 512" style="enable-background:new 0 0 512 512;" xml:space="preserve">
<circle style="fill:#FF9E16;" cx="255.999" cy="255.998" r="255.998"/>
<path style="opacity:0.2;enable-background:new    ;" d="M264.34,0.15C261.57,0.061,258.792,0,256,0s-5.57,0.061-8.34,0.15v78.952
	h16.68V0.15z M79.106,247.656L0.15,247.657c-0.088,2.772-0.149,5.55-0.149,8.342c0,2.791,0.061,5.569,0.149,8.338l78.957-0.001
	V247.656z M69.19,431.013c3.803,4.057,7.736,7.991,11.794,11.794l55.829-55.829l-11.794-11.795L69.19,431.013z M442.807,80.983
	c-3.803-4.058-7.736-7.992-11.794-11.794l-55.828,55.83l11.795,11.793L442.807,80.983z M69.193,80.984l55.828,55.828l11.794-11.795
	L80.988,69.189C76.93,72.992,72.996,76.925,69.193,80.984z M375.185,386.979l55.831,55.828c4.058-3.803,7.992-7.736,11.795-11.795
	l-55.831-55.829L375.185,386.979z M511.85,247.655l-78.958,0.002v16.68l78.958-0.002c0.089-2.769,0.149-5.545,0.149-8.336
	C512.001,253.207,511.939,250.428,511.85,247.655z M247.659,432.892l0.002,78.958c2.77,0.089,5.547,0.15,8.339,0.15
	c2.792,0,5.57-0.061,8.341-0.15l-0.002-78.958H247.659z"/>
<circle style="fill:#333E48;" cx="255.999" cy="255.998" r="184.607"/>
<path style="fill:#FFFFFF;" d="M354.578,206.876c0-33.764-23.579-62.107-55.132-69.477v-9.094c0-12.283-9.957-22.24-22.24-22.24
	c-12.283,0-22.24,9.957-22.24,22.24v7.209h-15.681v-7.209c0-12.283-9.957-22.24-22.24-22.24s-22.24,9.957-22.24,22.24v7.209h-15.141
	c-12.283,0-22.24,9.957-22.24,22.24c0,12.08,9.637,21.889,21.64,22.21v152.059c-12.002,0.321-21.64,10.129-21.64,22.21
	c0,12.283,9.957,22.24,22.24,22.24h15.141v7.21c0,12.283,9.957,22.24,22.24,22.24s22.24-9.957,22.24-22.24v-7.21h15.681v7.21
	c0,12.283,9.957,22.24,22.24,22.24s22.24-9.957,22.24-22.24v-9.095c31.552-7.369,55.132-35.71,55.132-69.476
	c0-19.014-7.477-36.316-19.643-49.12C347.101,243.192,354.578,225.889,354.578,206.876z M283.217,331.994h-59.674v-53.758h59.674
	c14.822,0,26.88,12.059,26.88,26.88C310.098,319.936,298.039,331.994,283.217,331.994z M283.217,233.755h-59.674v-53.76h59.674
	c14.822,0,26.88,12.059,26.88,26.88C310.098,221.697,298.039,233.755,283.217,233.755z"/>
<g>
</g>
<g>
</g>
<g>
</g>
<g>
</g>
<g>
</g>
<g>
</g>
<g>
</g>
<g>
</g>
<g>
</g>
<g>
</g>
<g>
</g>
<g>
</g>
<g>
</g>
<g>
</g>
<g>
</g>
</svg>
