<?xml version="1.0" encoding="iso-8859-1"?>
<!-- Generator: Adobe Illustrator 19.0.0, SVG Export Plug-In . SVG Version: 6.00 Build 0)  -->
<svg version="1.1" id="Layer_1" xmlns="http://www.w3.org/2000/svg" xmlns:xlink="http://www.w3.org/1999/xlink" x="0px" y="0px"
	 viewBox="0 0 512 512" style="enable-background:new 0 0 512 512;" xml:space="preserve">
<g>
	<g>
		<path d="M461.514,233.785c-12.249,0-22.215,9.966-22.215,22.216c0,12.249,9.966,22.214,22.215,22.214s22.214-9.965,22.214-22.214
			C483.728,243.752,473.763,233.785,461.514,233.785z M461.514,263.011c-3.866,0-7.011-3.145-7.011-7.01
			c0-3.866,3.145-7.012,7.011-7.012s7.01,3.146,7.01,7.012C468.524,259.867,465.38,263.011,461.514,263.011z"/>
	</g>
</g>
<g>
	<g>
		<path d="M461.513,205.515h-45.211V99.28c0-20.242-16.469-36.711-36.711-36.711H36.711C16.469,62.569,0,79.039,0,99.28v313.44
			c0,20.242,16.469,36.711,36.711,36.711H379.59c20.242,0,36.711-16.469,36.711-36.711V306.485h45.211
			c27.838,0,50.487-22.648,50.487-50.486C512,228.163,489.351,205.515,461.513,205.515z M461.513,291.282H408.7h-7.602h-48.465
			v15.204h48.465v15.207h-78.876v15.204h78.876v75.824c0,11.859-9.648,21.507-21.507,21.507H36.711
			c-11.859,0-21.507-9.647-21.507-21.507v-29.955h141.463v-15.204H15.204v-15.207H116.12v-15.204H15.204V99.28
			c0-11.859,9.647-21.507,21.507-21.507H379.59c11.859,0,21.507,9.648,21.507,21.507v22.487H285.196v15.204h115.901v83.747h60.415
			c19.455,0,35.283,15.827,35.283,35.282C496.796,275.455,480.969,291.282,461.513,291.282z"/>
	</g>
</g>
<g>
	<g>
		<rect x="72.543" y="121.764" width="192.38" height="15.204"/>
	</g>
</g>
<g>
	<g>
		<rect x="104.775" y="152.182" width="107.644" height="15.204"/>
	</g>
</g>
<g>
	<g>
		<rect x="52.265" y="243.415" width="130.825" height="15.204"/>
	</g>
</g>
<g>
	<g>
		<rect x="203.357" y="243.415" width="61.563" height="15.204"/>
	</g>
</g>
<g>
</g>
<g>
</g>
<g>
</g>
<g>
</g>
<g>
</g>
<g>
</g>
<g>
</g>
<g>
</g>
<g>
</g>
<g>
</g>
<g>
</g>
<g>
</g>
<g>
</g>
<g>
</g>
<g>
</g>
</svg>
